#N canvas 662 41 488 702 10;
#X obj 60 96 TuioClient;
#X obj 117 148 bng 15 250 50 0 empty empty empty 17 7 0 10 -262144
-1 -1;
#X obj 60 181 route addObject removeObject updateObject;
#X obj 96 255 unpack f f f f f;
#X floatatom 271 313 5 0 0 0 - - -;
#X floatatom 218 312 5 0 0 0 - - -;
#X floatatom 161 311 5 0 0 0 - - -;
#X floatatom 94 310 5 0 0 0 - - -;
#X floatatom 331 311 5 0 0 0 - - -;
#X text 91 332 Counter;
#X text 162 335 id;
#X text 218 335 x;
#X text 271 336 y;
#X text 332 334 angle;
#X obj 218 367 * 127;
#X floatatom 218 412 5 0 0 0 - - -;
#X obj 271 367 * 127;
#X floatatom 271 412 5 0 0 0 - - -;
#X obj 218 463 ctlout 60 1;
#X obj 307 463 ctlout 61 1;
#X connect 0 0 2 0;
#X connect 0 1 1 0;
#X connect 2 2 3 0;
#X connect 3 0 7 0;
#X connect 3 1 6 0;
#X connect 3 2 5 0;
#X connect 3 3 4 0;
#X connect 3 4 8 0;
#X connect 4 0 16 0;
#X connect 5 0 14 0;
#X connect 14 0 15 0;
#X connect 15 0 18 0;
#X connect 16 0 17 0;
#X connect 17 0 19 0;
